<svg width="24" height="24" viewBox="0 0 24 24" fill="none" xmlns="http://www.w3.org/2000/svg">
<path d="M3 2V3C3 4 5 4 5 5C5 6 3 6 3 7C3 8 5 8 5 9C5 10 3 10 3 11C3 12 5 12 5 13M18 6H18.01M6 18H6.01M18 11.66V22C19.0609 22 20.0783 21.5786 20.8284 20.8284C21.5786 20.0783 22 19.0609 22 18V6M20.8298 8.83003C21.2014 8.45839 21.4962 8.01718 21.6974 7.53161C21.8985 7.04604 22.002 6.52561 22.002 6.00003C22.002 5.47445 21.8985 4.95401 21.6974 4.46844C21.4962 3.98287 21.2014 3.54167 20.8298 3.17003C20.4581 2.79839 20.0169 2.50358 19.5314 2.30245C19.0458 2.10132 18.5254 1.9978 17.9998 1.9978C17.4742 1.9978 16.9538 2.10132 16.4682 2.30245C15.9826 2.50358 15.5414 2.79839 15.1698 3.17003L3.16978 15.17C2.41922 15.9206 1.99756 16.9386 1.99756 18C1.99756 18.5256 2.10108 19.046 2.30221 19.5316C2.50334 20.0172 2.79814 20.4584 3.16978 20.83C3.54142 21.2017 3.98263 21.4965 4.4682 21.6976C4.95377 21.8987 5.4742 22.0023 5.99978 22.0023C7.06124 22.0023 8.07922 21.5806 8.82978 20.83L20.8298 8.83003Z" stroke="#ffffff" stroke-width="2" stroke-linecap="round" stroke-linejoin="round"/>
</svg>
